PathFileType	4	(X/Y/Z)	/Users/niels/Desktop/University/Third Semester/Perception and Action/Exam/Gymnastics Motion Tracking/Code for Gym Tracking/Analyzed Data/Webcam_Backflip/id1_3_trajectory_Sports2D/id1_3_trajectory_Sports2D_px_person00.trc
DataRate	CameraRate	NumFrames	NumMarkers	Units	OrigDataRate	OrigDataStartFrame	OrigNumFrames
29.71698113207547	29.71698113207547	10	22	m	29.71698113207547	39	106
Frame#	Time	Hip			RHip			RKnee			RAnkle			RBigToe			RSmallToe			RHeel			LHip			LKnee			LAnkle			LBigToe			LSmallToe			LHeel			Neck			Head			Nose			RShoulder			RElbow			RWrist			LShoulder			LElbow			LWrist		
		X1	Y1	Z1	X2	Y2	Z2	X3	Y3	Z3	X4	Y4	Z4	X5	Y5	Z5	X6	Y6	Z6	X7	Y7	Z7	X8	Y8	Z8	X9	Y9	Z9	X10	Y10	Z10	X11	Y11	Z11	X12	Y12	Z12	X13	Y13	Z13	X14	Y14	Z14	X15	Y15	Z15	X16	Y16	Z16	X17	Y17	Z17	X18	Y18	Z18	X19	Y19	Z19	X20	Y20	Z20	X21	Y21	Z21	X22	Y22	Z22
39	1.3123809523809522	0.9610469117408454	-0.6518096395243067	0.0	0.9531398482085621	-0.6522165639641854	0.0	0.9973096254252946	-0.7704446036747709	0.0	0.9732394889005267	-0.8910769138957406	0.0	1.0201796792822713	-0.9086108944830505	0.0	1.0109815560837014	-0.9151884284116082	0.0	0.9597905767838275	-0.9079932151635601	0.0	0.9742378857305316	-0.6523223178104155	0.0	1.4792238454806033	-0.9053203831285748	0.0	1.4946814013108831	-0.9762220371790381	0.0	1.0328301885303637	-0.8988426888595451	0.0	1.4025686191263016	-0.9953054269746511	0.0	0.9606367713598011	-0.8950848260381604	0.0	0.9948207178988235	-0.49004512451233495	0.0	1.0124431875959734	-0.4254868228001615	0.0	1.4106206931985565	-0.8744367054295273	0.0	0.9911892443162947	-0.4941890570988508	0.0	0.9942724986351504	-0.4670888614594083	0.0	0.9808548945003127	-0.4294067206204975	0.0	0.9957121976716103	-0.4927909872566088	0.0	1.0021964226183366	-0.47457865378429503	0.0	1.0100172740050202	-0.44266677603196525	0.0
40	1.346031746031746	0.9649261054831347	-0.6635061369325843	0.0	0.9577043219772156	-0.6640676586775954	0.0	0.995137844431629	-0.7853927023660914	0.0	0.9727782058579975	-0.905674817045832	0.0	1.019191579270017	-0.9224547690603008	0.0	1.0104559646870648	-0.9292710687979217	0.0	0.9592183591828841	-0.9227631299252601	0.0	0.9769632381196647	-0.6642308362575853	0.0	1.4232856016915922	-0.9052384166408578	0.0	1.4357951714155617	-0.981325584058097	0.0	1.031904533250575	-0.912958871861369	0.0	1.3587569262129373	-0.9982203006647956	0.0	0.9598023856228554	-0.9104758037226001	0.0	0.9874293829918644	-0.4966537789080548	0.0	0.9939782273934985	-0.42849814043422274	0.0	1.3562273910709353	-0.8295397957025463	0.0	0.9851864711814939	-0.5002191648426695	0.0	1.003627431658021	-0.47044700233309633	0.0	1.002012777806305	-0.42518158741291495	0.0	0.9905975855829603	-0.49950352008426024	0.0	1.0095032769101626	-0.47694689376280325	0.0	1.0239546174005971	-0.43688110560967697	0.0
41	1.3796825396825394	0.9692342972122386	-0.6713406772891592	0.0	0.9630408732738652	-0.6720398073283075	0.0	0.9944293461064372	-0.7966757950697744	0.0	0.9724066861225242	-0.9177373996175588	0.0	1.0179171730684469	-0.9345492542041351	0.0	1.0096003766902937	-0.9413176342923022	0.0	0.9587018371547096	-0.9348397777319107	0.0	0.9798332548490402	-0.672234966838054	0.0	1.3281784815454587	-0.88965338882548	0.0	1.3330472530109523	-0.975698730927655	0.0	1.0303375488397444	-0.9254516351664012	0.0	1.2820770363542153	-0.990915262379242	0.0	0.958841545839597	-0.9234701249535807	0.0	0.9793337371426335	-0.5006212329815654	0.0	0.9744196944541973	-0.4300186442319523	0.0	1.2684832800194636	-0.7468236973365852	0.0	0.9784277748307839	-0.5032117703608208	0.0	1.009474129435343	-0.46966429707240626	0.0	1.0174898753689563	-0.41734044772532053	0.0	0.9848541519939756	-0.5034435555424994	0.0	1.0147102811086222	-0.4761469705861416	0.0	1.0334984893512076	-0.428565425975744	0.0
42	1.413333333333333	0.9740856101013867	-0.6720740631976613	0.0	0.9694070450021365	-0.6729907424197915	0.0	0.9964982357385611	-0.8007582574906551	0.0	0.9728121369067337	-0.9241944019089916	0.0	1.0166254713008365	-0.942333757849356	0.0	1.0086691643349317	-0.9486309438284818	0.0	0.9587423332169491	-0.9410152703686195	0.0	0.9831221322404387	-0.673136646807515	0.0	1.2198722667608437	-0.8624160356551721	0.0	1.2142998709195563	-0.9614520640027331	0.0	1.028511438089527	-0.933740758119691	0.0	1.1928109516257315	-0.9759537040812155	0.0	0.9584149296398927	-0.9311834541945997	0.0	0.9697002527032005	-0.4998910025440559	0.0	0.9527393226678984	-0.42914142893087287	0.0	1.1659733759626327	-0.6466107336092612	0.0	0.9700562297672086	-0.5011197524651411	0.0	1.0094921841817828	-0.4622667461232655	0.0	1.0238126096078064	-0.4037102715932476	0.0	0.9779388587679673	-0.5026005176790546	0.0	1.016564974343657	-0.4702999008842333	0.0	1.036386818362181	-0.41619539345505413	0.0
43	1.4469841269841268	0.9793439767287961	-0.6623910811109905	0.0	0.9766935425480082	-0.6637887109030041	0.0	1.0027714171208473	-0.7936277151055245	0.0	0.9751506796827303	-0.9211333407521102	0.0	1.0160240734396644	-0.9422982188977339	0.0	1.0083412112374075	-0.9476362786367657	0.0	0.9601868326088702	-0.9372320470325458	0.0	0.9871730261159195	-0.6637210723721635	0.0	1.1253049201888818	-0.8269124871810023	0.0	1.1085331713588158	-0.9399936245492871	0.0	1.0275344202264713	-0.9341887803178514	0.0	1.1122518612658474	-0.9547809237456983	0.0	0.9597746693222139	-0.9299232480080458	0.0	0.95758710795234	-0.492522561472548	0.0	0.9280123934743727	-0.425258321716562	0.0	1.0675395694964853	-0.5498385096158631	0.0	0.9591291115691906	-0.49228065412440425	0.0	1.001782568806929	-0.44654957699340114	0.0	1.0183306657997593	-0.38285389630864913	0.0	0.9693411660570417	-0.4951779447176298	0.0	1.0141359604604414	-0.4581181570846205	0.0	1.0313647438713218	-0.39879974568632287	0.0
44	1.4806349206349205	0.9844272657607585	-0.6405144627436368	0.0	0.9841192595218033	-0.6429065343708468	0.0	1.014190960126546	-0.7722316291730237	0.0	0.981003383835191	-0.9047682576063837	0.0	1.0174063788652978	-0.9305844773612284	0.0	1.009911879004124	-0.9345865519863321	0.0	0.9642484351115193	-0.9196020447582258	0.0	0.9922781687638251	-0.6423667693124255	0.0	1.0624647837388288	-0.7845913117857952	0.0	1.0353001815584246	-0.9109928263746853	0.0	1.0293857904840409	-0.9227185322078504	0.0	1.0551232344890882	-0.9263216716773695	0.0	0.9647508770865193	-0.9160495451255013	0.0	0.9423764272627381	-0.47780010901594433	0.0	0.9000540912267134	-0.4186657978764309	0.0	0.9852739259125102	-0.4705245256291431	0.0	0.9450314160440555	-0.47662129165385636	0.0	0.9862775483046234	-0.4232414234045368	0.0	1.0013442535168045	-0.35557212988788917	0.0	0.9588920289860738	-0.4807290254412742	0.0	1.0075527357717635	-0.4401741880016749	0.0	1.019736027661247	-0.3770352087412179	0.0
45	1.514285714285714	0.9884004298498739	-0.6076088860088651	0.0	0.9903826172221757	-0.611675636722386	0.0	1.030483631009614	-0.7357741826414933	0.0	0.9921947108614227	-0.8725386446355755	0.0	1.0227584086278192	-0.9036384321419025	0.0	1.015505525406444	-0.9062611687865275	0.0	0.9726155021519655	-0.8855664720496812	0.0	0.9983904015523987	-0.6103691712480851	0.0	1.0358772257557884	-0.7352985394441922	0.0	1.0003349246677666	-0.8726470670425318	0.0	1.0364121147221246	-0.8957119637551196	0.0	1.0263288390411245	-0.8873979972097089	0.0	0.9753694457706455	-0.886867652036524	0.0	0.9243475559873575	-0.4570070443012925	0.0	0.8699658528214823	-0.41064250010517683	0.0	0.9225285024061166	-0.413184622501164	0.0	0.9279206291093831	-0.4561138089511511	0.0	0.9655799737562325	-0.3960594997406978	0.0	0.9771254989216381	-0.325387134282067	0.0	0.9469315317816733	-0.46086942948732346	0.0	0.9981729521286777	-0.4193138938231015	0.0	1.0055249030718907	-0.35349610642650614	0.0
46	1.5479365079365077	0.990641219405975	-0.5678543120342566	0.0	0.994396031789646	-0.5740389798750661	0.0	1.0495952940433462	-0.6858808269594588	0.0	1.0104321054964607	-0.8236767787311239	0.0	1.0346851520634472	-0.8584786025941408	0.0	1.0280161339459635	-0.8602108295317434	0.0	0.987687331165188	-0.8346512315689385	0.0	1.0047343081377775	-0.5718276883591126	0.0	1.0386226916958927	-0.6787431329928992	0.0	0.9986015019505844	-0.8227271144796404	0.0	1.0504888114389517	-0.850503249429264	0.0	1.0231751741291348	-0.8345368394789934	0.0	0.9933376894841603	-0.8409558258451514	0.0	0.9050508160199048	-0.43316171261493297	0.0	0.8401483702039194	-0.40255597043203656	0.0	0.877242283431953	-0.3754613203106733	0.0	0.9088870542336214	-0.43375410010599674	0.0	0.9441020315907627	-0.3699781439072123	0.0	0.9524270906618308	-0.2970347131419541	0.0	0.9340756034021781	-0.4387669814607848	0.0	0.9877693238332448	-0.3992511667064841	0.0	0.9934085345972965	-0.3316023311786522	0.0
47	1.5815873015873014	0.9919296973419501	-0.5274142918921879	0.0	0.9959724689271144	-0.5350956547283509	0.0	1.067714880486485	-0.6258813114480495	0.0	1.0365218972963912	-0.7591647062753547	0.0	1.0553401408030918	-0.792927160560079	0.0	1.0498894063446764	-0.7948797119712866	0.0	1.0124505189132864	-0.7688706445948369	0.0	1.0099032633611353	-0.5322214814693577	0.0	1.0576906669887436	-0.6159280428526543	0.0	1.020450051077266	-0.7596406926438777	0.0	1.0723870719511694	-0.785365861730548	0.0	1.0401596803668973	-0.765953698641021	0.0	1.0197256011999765	-0.7782387099715482	0.0	0.8872638748162345	-0.41022999708346763	0.0	0.8135965963529832	-0.3947584904011342	0.0	0.8466772116153879	-0.35274236471364795	0.0	0.8897662506015941	-0.41222761656537904	0.0	0.9261276984552758	-0.3487690009420407	0.0	0.9337655436485937	-0.27428366482111827	0.0	0.920909716563031	-0.4177836337301232	0.0	0.9776109660920078	-0.38245606907472146	0.0	0.986264424259482	-0.3139133812524966	0.0
48	1.615238095238095	0.9953130933730104	-0.4930943032319789	0.0	0.9959172962696337	-0.49943296626540207	0.0	1.0805847790885752	-0.5599583746645117	0.0	1.069264877690023	-0.681269726405416	0.0	1.0841951276524773	-0.7064381086823295	0.0	1.0807906389393747	-0.7101100974471765	0.0	1.0495097140773577	-0.6928327806245249	0.0	1.0127203558908484	-0.4965081969296985	0.0	1.0792932397592332	-0.5496444133325192	0.0	1.055598034945519	-0.6832019017316953	0.0	1.1006859525055634	-0.7000310854771574	0.0	1.0718633913176618	-0.6834676385488739	0.0	1.054306560231653	-0.7003792146877279	0.0	0.8747327973802677	-0.3926595325466955	0.0	0.7927299927483124	-0.3865027095669067	0.0	0.8298851553615157	-0.34153721205139376	0.0	0.8727509234490793	-0.39342987092559867	0.0	0.9144005300209491	-0.333966821531283	0.0	0.925359192251617	-0.25895482052776025	0.0	0.9079545528874167	-0.40027371843434817	0.0	0.9682436483791378	-0.3692930906178573	0.0	0.9842537666125618	-0.301101027861657	0.0
